<svg xmlns="http://www.w3.org/2000/svg" xmlns:xlink="http://www.w3.org/1999/xlink" width="40" zoomAndPan="magnify" viewBox="0 0 30 30.000001" height="40" preserveAspectRatio="xMidYMid meet" version="1.0"><defs><clipPath id="0a318c053c"><path d="M 1.609375 0 L 28.464844 0 L 28.464844 14 L 1.609375 14 Z M 1.609375 0 " clip-rule="nonzero"/></clipPath><clipPath id="3a37ed1539"><path d="M 3 14 L 27 14 L 27 29.03125 L 3 29.03125 Z M 3 14 " clip-rule="nonzero"/></clipPath></defs><g clip-path="url(#0a318c053c)"><path fill="#7a623c" d="M 10.550781 13.679688 L 3.160156 13.679688 C 1.894531 13.675781 1.625 13.667969 1.625 12.414062 L 1.621094 8.035156 C 1.613281 7.011719 2.425781 7.074219 3.183594 7.070312 L 10.167969 7.066406 C 10.035156 7.046875 9.898438 6.960938 9.769531 6.910156 L 9.328125 6.734375 C 8.71875 6.484375 8.070312 6.226562 7.523438 5.847656 C 5.382812 4.367188 5.644531 1.347656 8.339844 0.660156 C 10.929688 0 12.933594 1.78125 14.195312 3.898438 L 14.617188 4.65625 C 14.742188 4.890625 14.855469 5.132812 15 5.359375 C 15.035156 5.324219 15.058594 5.265625 15.085938 5.21875 L 15.589844 4.285156 C 16.613281 2.519531 18.171875 0.550781 20.414062 0.53125 C 20.621094 0.53125 20.835938 0.519531 21.039062 0.539062 C 23.046875 0.730469 24.558594 2.492188 23.671875 4.460938 C 23.148438 5.621094 22.058594 6.160156 20.945312 6.605469 L 19.75 7.074219 L 26.707031 7.070312 C 27.417969 7.074219 28.371094 6.972656 28.375 7.96875 L 28.378906 12.449219 C 28.378906 12.96875 28.359375 13.578125 27.660156 13.671875 C 27.550781 13.6875 27.429688 13.679688 27.316406 13.679688 L 17.316406 13.679688 L 17.320312 8.015625 L 12.6875 8.007812 L 12.6875 13.679688 Z M 9.167969 2.003906 C 7.65625 2.082031 6.816406 3.421875 8.148438 4.554688 C 8.738281 5.054688 9.9375 5.414062 10.660156 5.648438 L 12.519531 6.226562 L 13.871094 6.59375 C 13.527344 6.199219 13.265625 5.75 12.976562 5.316406 C 12.253906 4.234375 11.046875 2.402344 9.726562 2.039062 C 9.566406 1.996094 9.335938 1.996094 9.167969 2.003906 Z M 20.574219 2.003906 C 19.46875 2.125 18.65625 3.144531 18.003906 3.957031 L 16.097656 6.621094 L 17.640625 6.167969 C 18.753906 5.832031 19.878906 5.535156 20.945312 5.066406 C 21.5 4.820312 21.996094 4.578125 22.292969 4.015625 C 23.007812 2.671875 21.777344 1.910156 20.574219 2.003906 Z M 20.574219 2.003906 " fill-opacity="1" fill-rule="nonzero"/></g><g clip-path="url(#3a37ed1539)"><path fill="#7a623c" d="M 26.792969 15.695312 L 26.78125 27.429688 C 26.722656 28.230469 26.136719 28.917969 25.320312 28.996094 C 24.953125 29.03125 24.566406 29.007812 24.203125 29.007812 L 5.773438 29.007812 C 5.390625 29.007812 4.988281 29.03125 4.605469 28.996094 C 3.878906 28.929688 3.296875 28.242188 3.210938 27.542969 C 3.191406 27.355469 3.207031 27.152344 3.207031 26.964844 L 3.207031 15.71875 C 3.207031 15.425781 3.191406 15.125 3.222656 14.835938 L 12.683594 14.84375 C 12.699219 14.984375 12.6875 15.132812 12.6875 15.273438 L 12.6875 28.078125 L 17.316406 28.078125 L 17.3125 14.839844 L 26.785156 14.839844 C 26.816406 15.117188 26.792969 15.417969 26.792969 15.695312 Z M 26.792969 15.695312 " fill-opacity="1" fill-rule="nonzero"/></g></svg>